# xmcd
#
# Track frame offsets: 
#        150
#        17779
#        30107
#        43259
#        58693
#        74832
#        87004
#        103074
#        114157
#        129345
#        138136
#        157319
#
# Disc length: 2345 seconds
#
# Revision: 2
# Processed by: cddbd v1.5.2PL0 Copyright (c) Steve Scherf et al.
# Submitted via: ExactAudioCopy v1.0b1
#
DISCID=9e09270c
DTITLE=Rod Picott - Stray Dogs
DYEAR=2002
DGENRE=Folk
TTITLE0=Stray Dogs
TTITLE1=Baby Blue
TTITLE2=Angels And Acrobats
TTITLE3=Circus Girl
TTITLE4=Workshirts And Turpentine
TTITLE5=Find Your Way Home
TTITLE6=The Leaving Kind
TTITLE7=Need You Bad
TTITLE8=I Coulda Been The King
TTITLE9=Up All Night
TTITLE10=Not Gong Down
TTITLE11=River Runs
EXTD=
EXTT0=
EXTT1=
EXTT2=
EXTT3=
EXTT4=
EXTT5=
EXTT6=
EXTT7=
EXTT8=
EXTT9=
EXTT10=
EXTT11=
PLAYORDER=
